<svg width="189" height="48" viewBox="0 0 189 48" fill="none" xmlns="http://www.w3.org/2000/svg">
<path d="M40 3.5H8C7.44772 3.5 7 3.94772 7 4.5V36.5C7 37.0523 7.44772 37.5 8 37.5H40C40.5523 37.5 41 37.0523 41 36.5V4.5C41 3.94772 40.5523 3.5 40 3.5Z" fill="#3B5BC1"/>
<path d="M6.5 5.5H12L15 7.5H43V11.75L5 11.5V10V7C5 6.169 5.67035 5.5474 6.5 5.5Z" fill="#56ECD7"/>
<path d="M44 10.5H4C2.89543 10.5 2 11.3954 2 12.5V42.5C2 43.6046 2.89543 44.5 4 44.5H44C45.1046 44.5 46 43.6046 46 42.5V12.5C46 11.3954 45.1046 10.5 44 10.5Z" fill="#5B7EEE"/>
<path opacity="0.05" fill-rule="evenodd" clip-rule="evenodd" d="M20 20.5V36.5L32 28.5L20 20.5Z" fill="black"/>
<path fill-rule="evenodd" clip-rule="evenodd" d="M19 19.5V35.5L31 27.5L19 19.5Z" fill="#ECF4F5"/>
<path d="M63.92 35.224C62.3627 35.224 60.9547 34.9573 59.696 34.424C58.4587 33.8907 57.4773 33.1227 56.752 32.12C56.0267 31.1173 55.6533 29.9333 55.632 28.568H60.432C60.496 29.4853 60.816 30.2107 61.392 30.744C61.9893 31.2773 62.8 31.544 63.824 31.544C64.8693 31.544 65.6907 31.2987 66.288 30.808C66.8853 30.296 67.184 29.6347 67.184 28.824C67.184 28.1627 66.9813 27.6187 66.576 27.192C66.1707 26.7653 65.6587 26.4347 65.04 26.2C64.4427 25.944 63.6107 25.6667 62.544 25.368C61.0933 24.9413 59.9093 24.5253 58.992 24.12C58.096 23.6933 57.3173 23.064 56.656 22.232C56.016 21.3787 55.696 20.248 55.696 18.84C55.696 17.5173 56.0267 16.3653 56.688 15.384C57.3493 14.4027 58.2773 13.656 59.472 13.144C60.6667 12.6107 62.032 12.344 63.568 12.344C65.872 12.344 67.7387 12.9093 69.168 14.04C70.6187 15.1493 71.4187 16.7067 71.568 18.712H66.64C66.5973 17.944 66.2667 17.3147 65.648 16.824C65.0507 16.312 64.2507 16.056 63.248 16.056C62.3733 16.056 61.6693 16.28 61.136 16.728C60.624 17.176 60.368 17.8267 60.368 18.68C60.368 19.2773 60.56 19.7787 60.944 20.184C61.3493 20.568 61.84 20.888 62.416 21.144C63.0133 21.3787 63.8453 21.656 64.912 21.976C66.3627 22.4027 67.5467 22.8293 68.464 23.256C69.3813 23.6827 70.1707 24.3227 70.832 25.176C71.4933 26.0293 71.824 27.1493 71.824 28.536C71.824 29.7307 71.5147 30.84 70.896 31.864C70.2773 32.888 69.3707 33.7093 68.176 34.328C66.9813 34.9253 65.5627 35.224 63.92 35.224ZM80.124 20.952V29.528C80.124 30.1253 80.2627 30.5627 80.54 30.84C80.8387 31.096 81.3293 31.224 82.012 31.224H84.092V35H81.276C77.5 35 75.612 33.1653 75.612 29.496V20.952H73.5V17.272H75.612V12.888H80.124V17.272H84.092V20.952H80.124ZM90.9942 20.024C91.5703 19.0853 92.3169 18.3493 93.2343 17.816C94.1729 17.2827 95.2396 17.016 96.4342 17.016V21.72H95.2502C93.8423 21.72 92.7756 22.0507 92.0503 22.712C91.3462 23.3733 90.9942 24.5253 90.9942 26.168V35H86.5142V17.272H90.9942V20.024ZM115.132 25.752C115.132 26.392 115.089 26.968 115.004 27.48H102.044C102.15 28.76 102.598 29.7627 103.388 30.488C104.177 31.2133 105.148 31.576 106.3 31.576C107.964 31.576 109.148 30.8613 109.852 29.432H114.684C114.172 31.1387 113.19 32.5467 111.74 33.656C110.289 34.744 108.508 35.288 106.396 35.288C104.689 35.288 103.153 34.9147 101.788 34.168C100.444 33.4 99.3877 32.3227 98.6197 30.936C97.8731 29.5493 97.4997 27.9493 97.4997 26.136C97.4997 24.3013 97.8731 22.6907 98.6197 21.304C99.3664 19.9173 100.412 18.8507 101.756 18.104C103.1 17.3573 104.646 16.984 106.396 16.984C108.081 16.984 109.585 17.3467 110.908 18.072C112.252 18.7973 113.286 19.832 114.012 21.176C114.758 22.4987 115.132 24.024 115.132 25.752ZM110.492 24.472C110.47 23.32 110.054 22.4027 109.244 21.72C108.433 21.016 107.441 20.664 106.268 20.664C105.158 20.664 104.22 21.0053 103.452 21.688C102.705 22.3493 102.246 23.2773 102.076 24.472H110.492ZM116.45 26.072C116.45 24.28 116.802 22.6907 117.506 21.304C118.231 19.9173 119.202 18.8507 120.418 18.104C121.655 17.3573 123.031 16.984 124.546 16.984C125.868 16.984 127.02 17.2507 128.002 17.784C129.004 18.3173 129.804 18.9893 130.402 19.8V17.272H134.914V35H130.402V32.408C129.826 33.24 129.026 33.9333 128.002 34.488C126.999 35.0213 125.836 35.288 124.514 35.288C123.02 35.288 121.655 34.904 120.418 34.136C119.202 33.368 118.231 32.2907 117.506 30.904C116.802 29.496 116.45 27.8853 116.45 26.072ZM130.402 26.136C130.402 25.048 130.188 24.12 129.762 23.352C129.335 22.5627 128.759 21.9653 128.034 21.56C127.308 21.1333 126.53 20.92 125.698 20.92C124.866 20.92 124.098 21.1227 123.394 21.528C122.69 21.9333 122.114 22.5307 121.666 23.32C121.239 24.088 121.026 25.0053 121.026 26.072C121.026 27.1387 121.239 28.0773 121.666 28.888C122.114 29.6773 122.69 30.2853 123.394 30.712C124.119 31.1387 124.887 31.352 125.698 31.352C126.53 31.352 127.308 31.1493 128.034 30.744C128.759 30.3173 129.335 29.72 129.762 28.952C130.188 28.1627 130.402 27.224 130.402 26.136ZM160.505 17.016C162.681 17.016 164.431 17.688 165.753 19.032C167.097 20.3547 167.769 22.2107 167.769 24.6V35H163.289V25.208C163.289 23.8213 162.937 22.7653 162.233 22.04C161.529 21.2933 160.569 20.92 159.353 20.92C158.137 20.92 157.167 21.2933 156.441 22.04C155.737 22.7653 155.385 23.8213 155.385 25.208V35H150.905V25.208C150.905 23.8213 150.553 22.7653 149.849 22.04C149.145 21.2933 148.185 20.92 146.969 20.92C145.732 20.92 144.751 21.2933 144.025 22.04C143.321 22.7653 142.969 23.8213 142.969 25.208V35H138.489V17.272H142.969V19.416C143.545 18.6693 144.281 18.0827 145.177 17.656C146.095 17.2293 147.097 17.016 148.185 17.016C149.572 17.016 150.809 17.3147 151.897 17.912C152.985 18.488 153.828 19.32 154.425 20.408C155.001 19.384 155.833 18.5627 156.921 17.944C158.031 17.3253 159.225 17.016 160.505 17.016ZM188.18 17.272L177.204 43.384H172.436L176.276 34.552L169.172 17.272H174.196L178.772 29.656L183.412 17.272H188.18Z" fill="url(#paint0_linear_29_62)"/>
<defs>
<linearGradient id="paint0_linear_29_62" x1="29.5714" y1="81.3333" x2="153.934" y2="11.274" gradientUnits="userSpaceOnUse">
<stop stop-color="#56ECD7"/>
<stop offset="1" stop-color="#5B7EEE"/>
</linearGradient>
</defs>
</svg>
